<svg xmlns="http://www.w3.org/2000/svg" xmlns:svg="http://www.w3.org/2000/svg" id="svg2856" width="48" height="48" version="1.1"><defs id="defs2858"><filter id="filter3864"><feGaussianBlur id="feGaussianBlur3866" stdDeviation=".205"/></filter></defs><metadata id="metadata2861"/><g id="layer1"><path style="fill:#e9b96e;fill-opacity:1;stroke:#573a0d;stroke-width:1;stroke-linecap:square;stroke-linejoin:miter;stroke-miterlimit:4;stroke-opacity:1;stroke-dasharray:none;stroke-dashoffset:0" id="path3047" d="M 6.1513775e-7,16 3.2110204e-7,28 21.035899,40.145082 l 21,-12.414519 0,-11.461126 L 20.78461,4 6.1513775e-7,16 z" transform="translate(3.4641013,6)"/><path style="fill:#2e3436;fill-opacity:1;stroke:#2e3436;stroke-width:1;stroke-linecap:round;stroke-linejoin:miter;stroke-miterlimit:4;stroke-opacity:1;stroke-dasharray:none;stroke-dashoffset:0" id="path3831" d="m 8.5,30.907477 -2,-1.1547 0,6 L 17.320508,42 l 0,-2 -1.732051,-1 0,-2 L 13.5,35.794229 l 0,-4 -5,-2.886752 0,2 z"/><path style="opacity:1;fill:#555753;fill-opacity:1;stroke:#2e3436;stroke-linejoin:miter" id="path3870" d="m 6.9282032,36 3.4641018,-2 3.464101,2 1.643594,0.948929 0,2 2,1.154701 0,2 L 6.9282032,36 z"/><path style="fill:#fce94f;fill-opacity:1;stroke:#625802;stroke-width:1;stroke-linecap:round;stroke-linejoin:round;stroke-miterlimit:4;stroke-opacity:1;stroke-dasharray:none;stroke-dashoffset:0" id="path3851" d="M 25.980762,19 31.5,22.186533 l 0,2 L 38.09375,28 41.5625,26 45.5,23.730563 l 0,2.538874 0,-4 L 32.908965,15 25.980762,19 z"/><path style="fill:#e9b96e;fill-opacity:1;stroke:#573a0d;stroke-width:1;stroke-linecap:round;stroke-linejoin:round;stroke-miterlimit:4;stroke-opacity:1;stroke-dasharray:none;stroke-dashoffset:.5" id="path5684" d="m 24.839746,18.341234 8.660254,-5 0,2 -8.660254,5 0,-2 z"/><path style="fill:#73d216;fill-opacity:1;stroke:#325b09;stroke-width:1;stroke-linecap:square;stroke-linejoin:round;stroke-miterlimit:4;stroke-opacity:1;stroke-dasharray:none;stroke-dashoffset:0" id="path3821" d="M 25.980762,5 3.4641016,18 17.5,26.10363 31.5,18.186533 24.839746,14.341234 33.5,9.341234 25.980762,5 z" transform="translate(0,4)"/><path style="fill:#729fcf;fill-opacity:1;stroke:#19314b;stroke-width:1;stroke-linecap:round;stroke-linejoin:miter;stroke-miterlimit:4;stroke-opacity:1;stroke-dasharray:none;stroke-dashoffset:0" id="path3825" d="m 17.5,28.10363 0,2 1.552559,0.89637 0,2 5.447441,3.145082 12,-7.071797 0,-2.14657 2,-1.1547 0,-1.54403 -7,-4.041452 -14,7.917097 z" transform="translate(0,4)"/><g id="g5691" style="stroke-linejoin:miter"><path id="path3862" d="m 13.856406,20 6.928204,4 -6.928204,4 -6.9282028,-4 6.9282028,-4 z" style="fill:#2e3436;fill-opacity:1;stroke:none;stroke-width:1;stroke-linecap:round;stroke-linejoin:miter;stroke-miterlimit:4;stroke-opacity:1;stroke-dasharray:none;stroke-dashoffset:0;filter:url(#filter3864);opacity:.25"/><g id="g3858" style="stroke-linejoin:miter"><path style="fill:#c17d11;fill-opacity:1;stroke:#8f5902;stroke-width:1;stroke-linecap:round;stroke-linejoin:miter;stroke-miterlimit:4;stroke-opacity:1;stroke-dasharray:none;stroke-dashoffset:0" id="path3833" d="m 15.588457,21 1.732051,1 1.732051,-1 0,-6 -1.732051,-1 -1.732051,1 0,6 z" transform="translate(-3.4641015,2)"/><path style="fill:#4e9a06;fill-opacity:1;stroke:#316004;stroke-width:1;stroke-linecap:round;stroke-linejoin:miter;stroke-miterlimit:4;stroke-opacity:1;stroke-dasharray:none;stroke-dashoffset:0" id="path3837" d="M 9.9641015,13.752777 17.320508,18 l 6.643593,-3.835681 0,-8.3286385 L 17.320508,2 9.9641015,6.2472233 l 0,7.5055537 z" transform="translate(-3.4641015,2)"/></g></g><g id="g5686" transform="translate(-4.2591582e-7,2)" style="stroke-linejoin:miter"><path transform="translate(24.248712,-2)" style="opacity:.25;fill:#2e3436;fill-opacity:1;stroke:none;filter:url(#filter3864);stroke-linejoin:miter" id="path3868" d="m 13.856406,20 5.196153,3 -5.196153,3 -5.196152,-3 5.196152,-3 z"/><path style="fill:#4e9a06;fill-opacity:1;stroke:#316004;stroke-width:1;stroke-linecap:round;stroke-linejoin:miter;stroke-miterlimit:4;stroke-opacity:1;stroke-dasharray:none;stroke-dashoffset:0" id="path3853" d="M 15.71539,21.073285 17.320508,22 l 1.394882,-0.805336 0,-8.389328 L 17.320508,12 l -1.605118,1.073285 0,8 z" transform="translate(20.78461,0)"/></g><path style="fill:none;fill-opacity:1;stroke:#ef2929;stroke-width:.5;stroke-linecap:butt;stroke-linejoin:miter;stroke-miterlimit:4;stroke-opacity:1;stroke-dasharray:.5,.5;stroke-dashoffset:.25" id="path3872" d="M 12.124356,33 11.25833,32.5"/><path style="fill:#888a85;stroke:#2e3436;stroke-width:1;stroke-linecap:round;stroke-linejoin:miter;stroke-miterlimit:4;stroke-opacity:1;stroke-dasharray:none;stroke-dashoffset:.5" id="path3874" d="m 45.5,26.730563 -4,2.309401 0,1 -2,1.1547 0,2 -2,1.154701 0,4 8,-4.618802 0,-7 z"/></g></svg>