<svg xmlns="http://www.w3.org/2000/svg" xmlns:svg="http://www.w3.org/2000/svg" id="svg8" width="512" height="512" version="1.1" viewBox="0 0 135.467 135.467"><metadata id="metadata5"/><g id="layer1" transform="translate(0,-161.53332)"><path style="fill:none;fill-opacity:1;stroke:#fff;stroke-width:5.70848799;stroke-linecap:butt;stroke-linejoin:round;stroke-miterlimit:4;stroke-dasharray:none;stroke-opacity:1" id="path58-3-6" d="m 67.733332,254.66665 c 0,0 -8.668881,0 -18.300771,-3.15268 -9.631892,-3.1527 -18.2943,-9.47798 -24.078829,-22.06889 5.706713,-9.81112 13.792733,-18.56809 24.089264,-22.0987 9.587884,-3.28767 18.290339,-3.12291 18.290339,-3.12291 0,0 7.735344,-0.0794 18.31234,3.12292 9.690806,2.93407 18.313585,9.42827 24.067265,22.09869 -5.76759,12.59091 -14.445437,18.91619 -24.0777,22.06889 -9.63227,3.15268 -18.301908,3.15268 -18.301908,3.15268 z"/><path style="fill:#fff;fill-opacity:1;stroke:#fff;stroke-width:.73025268;stroke-linecap:butt;stroke-linejoin:round;stroke-miterlimit:4;stroke-dasharray:none;stroke-opacity:1" id="path4487" d="m 64.488929,217.53903 c -0.857939,0.17659 0.965211,0.45252 1.127737,0.80919 3.74151,2.22182 4.135021,8.10158 0.722172,10.79555 -2.788479,2.49816 -7.570549,1.85517 -9.647324,-1.24231 -0.478813,6.23671 4.305402,12.62817 10.72756,13.07655 5.379142,0.53291 10.304075,-3.82096 11.146917,-9.02134 1.316631,-6.22759 -2.756791,-13.29903 -9.184051,-14.59275 -1.613453,-0.33844 -3.308229,-0.28143 -4.893011,0.17511 z"/><ellipse style="fill:none;fill-opacity:1;stroke:#fff;stroke-width:3;stroke-linecap:round;stroke-linejoin:round;stroke-miterlimit:4;stroke-dasharray:none;stroke-opacity:1" id="path4489" cx="68.001" cy="229.402" rx="24.329" ry="24.539"/></g></svg>