<svg xmlns="http://www.w3.org/2000/svg" xmlns:svg="http://www.w3.org/2000/svg" id="svg8" width="512" height="512" version="1.1" viewBox="0 0 135.467 135.467"><metadata id="metadata5"/><g id="layer1" transform="translate(0,-161.53332)" style="display:inline"><path style="fill:none;stroke:#fff;stroke-width:22.67716599;stroke-linecap:round;stroke-linejoin:round;stroke-miterlimit:4;stroke-dasharray:none;stroke-opacity:1" id="path4573" d="M 352,96.000006 144,96 96,146.52539 V 304 l 24,24.00001 m 88,24 L 320,352 v 64 L 370.28516,364.17773 416,314.94727 V 146.52539" transform="matrix(0.26458333,0,0,0.26458333,0,161.53332)"/><path style="fill:#fff;fill-opacity:1;stroke:none;stroke-width:6;stroke-linecap:butt;stroke-linejoin:round;stroke-miterlimit:4;stroke-dasharray:none;stroke-opacity:1" id="path4737" d="m 38.1,199.63332 h 38.099999 v 8.46667 H 38.1 v -8.46667"/><path style="fill:#fff;fill-opacity:1;stroke:none;stroke-width:22.67716599;stroke-linecap:butt;stroke-linejoin:miter;stroke-miterlimit:4;stroke-dasharray:none;stroke-opacity:1" id="path4737-5" d="m 144,272 v 32 l 16,10e-6 32,-32 z m 128,0 -32,32 h 48 v -32 z" transform="matrix(0.26458333,0,0,0.26458333,0,161.53332)"/><path style="fill:#fff;fill-opacity:1;stroke:none;stroke-width:22.67716599;stroke-linecap:butt;stroke-linejoin:miter;stroke-miterlimit:4;stroke-dasharray:none;stroke-opacity:1" id="path4737-6" d="M 256,208.00001 224,208 v 32 m 112,-32 -32,32 h 64 v -32 z" transform="matrix(0.26458333,0,0,0.26458333,0,161.53332)"/><path style="fill:#fff;fill-opacity:1;stroke:none;stroke-width:22.67716599;stroke-linecap:butt;stroke-linejoin:miter;stroke-miterlimit:4;stroke-dasharray:none;stroke-opacity:1" id="path4737-2" d="m 304,144 v 16.00001 l 16,-16 z" transform="matrix(0.26458333,0,0,0.26458333,0,161.53332)"/><path style="fill:#fff;fill-opacity:1;stroke:none;stroke-width:6;stroke-linecap:butt;stroke-linejoin:miter;stroke-miterlimit:4;stroke-dasharray:none;stroke-opacity:1" id="path4737-2-9" d="m 38.1,216.56665 h 16.933333 v 8.46667 H 38.1 v -8.46667"/><path style="fill:#fff;fill-opacity:1;stroke:none;stroke-width:6;stroke-linecap:butt;stroke-linejoin:miter;stroke-miterlimit:4;stroke-dasharray:none;stroke-opacity:1" id="path4737-2-1" d="m 80.433332,233.49999 h 16.933333 v 8.46667 H 80.433332 v -8.46667"/><path style="fill:#fff;fill-opacity:1;stroke:#fff;stroke-width:2;stroke-linecap:butt;stroke-linejoin:round;stroke-miterlimit:4;stroke-dasharray:none;stroke-opacity:1" id="path4499" d="m 23.283335,267.36666 4.23333,4.23333 88.900005,-88.9 -4.23333,-4.23333 z"/></g></svg>