<svg xmlns="http://www.w3.org/2000/svg" xmlns:svg="http://www.w3.org/2000/svg" id="svg8" width="512" height="512" version="1.1" viewBox="0 0 135.467 135.467"><metadata id="metadata5"/><g id="layer1" transform="translate(0,-161.53332)"><path style="fill:none;stroke:#fff;stroke-width:6.15586996;stroke-linecap:butt;stroke-linejoin:round;stroke-miterlimit:4;stroke-dasharray:none;stroke-opacity:1" id="path4573" d="M 38.099995,186.93332 H 97.36666 l 12.70001,13.36842 v 44.56141 l -12.095255,13.02565 -13.304754,13.71119 5e-6,-16.93334 H 38.1 l -12.7,-12.7 -5e-6,-41.66491 z"/><path style="fill:none;fill-opacity:1;stroke:none;stroke-width:0;stroke-linecap:butt;stroke-linejoin:round;stroke-miterlimit:4;stroke-dasharray:none;stroke-opacity:1" id="path4737" d="m 38.1,199.63332 h 38.099999 v 8.46667 H 38.1 v -8.46667"/><path style="fill:none;fill-opacity:1;stroke:none;stroke-width:.30048177;stroke-linecap:butt;stroke-linejoin:miter;stroke-miterlimit:4;stroke-dasharray:none;stroke-opacity:1" id="path4737-5" d="m 38.1,233.49998 h 38.099999 v 8.46667 H 38.1 v -8.46667"/><path style="fill:none;fill-opacity:1;stroke:none;stroke-width:.30048177;stroke-linecap:butt;stroke-linejoin:miter;stroke-miterlimit:4;stroke-dasharray:none;stroke-opacity:1" id="path4737-6" d="m 59.266666,216.56665 h 38.099999 v 8.46667 H 59.266666 v -8.46667"/><path style="fill:none;fill-opacity:1;stroke:none;stroke-width:.20032115;stroke-linecap:butt;stroke-linejoin:miter;stroke-miterlimit:4;stroke-dasharray:none;stroke-opacity:1" id="path4737-2" d="m 80.433331,199.63332 h 16.933334 v 8.46667 H 80.433331 v -8.46667"/><path style="fill:none;fill-opacity:1;stroke:none;stroke-width:.20032115;stroke-linecap:butt;stroke-linejoin:miter;stroke-miterlimit:4;stroke-dasharray:none;stroke-opacity:1" id="path4737-2-9" d="m 38.1,216.56665 h 16.933333 v 8.46667 H 38.1 v -8.46667"/><path style="fill:none;fill-opacity:1;stroke:none;stroke-width:.20032115;stroke-linecap:butt;stroke-linejoin:miter;stroke-miterlimit:4;stroke-dasharray:none;stroke-opacity:1" id="path4737-2-1" d="m 80.433332,233.49999 h 16.933333 v 8.46667 H 80.433332 v -8.46667"/><path style="fill:#fff;fill-opacity:1;stroke:#fff;stroke-width:1.8897638;stroke-linecap:square;stroke-linejoin:round;stroke-miterlimit:4;stroke-dasharray:none;stroke-opacity:1" id="path5484" d="m 332.249,369.02277 c -0.0402,-18.48612 -0.4849,-21.66096 -3.48875,-24.9094 -3.91749,-4.23646 1.11742,-4.01917 -93.12942,-4.01917 h -86.6347 l -20.5311,-20.54025 -20.53109,-20.54025 0.0344,-73.92404 0.0344,-73.92403 20.50131,-21.579 20.50132,-21.57899 106.90272,-0.0281 106.90273,-0.0281 20.77585,21.85532 20.77584,21.85531 v 79.11261 79.1126 l -24.59489,26.35352 c -13.5272,14.49442 -29.74434,31.65707 -36.0381,38.13922 l -11.44321,11.78571 -0.0373,-17.14286 z m -43.95792,-81.07142 v -16.07143 l -72.32143,-0.18197 -72.32143,-0.18198 v 16.43538 16.43537 l 72.32143,-0.18197 72.32143,-0.18198 z m 80,0 v -16.07143 l -32.32143,-0.18585 -32.32143,-0.18585 v 16.44313 16.44312 l 32.32143,-0.18585 32.32143,-0.18585 z M 208.64822,224.02277 v -16.07142 h -32.5 -32.5 v 16.07142 16.07143 h 32.5 32.5 z m 160,0 v -16.07142 h -72.5 -72.5 v 16.07142 16.07143 h 72.5 72.5 z M 288.29108,160.0942 v -16.07143 l -72.32143,-0.18197 -72.32143,-0.18197 v 16.43537 16.43537 l 72.32143,-0.18197 72.32143,-0.18197 z m 80,0 v -16.07143 l -32.32143,-0.18585 -32.32143,-0.18585 v 16.44313 16.44313 l 32.32143,-0.18585 32.32143,-0.18585 z" transform="matrix(0.26458333,0,0,0.26458333,0,161.53332)"/></g></svg>