<svg xmlns="http://www.w3.org/2000/svg" xmlns:svg="http://www.w3.org/2000/svg" id="svg8" width="512" height="512" version="1.1" viewBox="0 0 135.467 135.467"><defs id="defs2"><marker style="overflow:visible" id="DistanceX" orient="auto" refX="0" refY="0"><path id="path4687" style="stroke:#000;stroke-width:.5" d="M 3,-3 L -3,3 M 0,-5 L 0,5"/></marker><pattern id="Hatch" width="8" height="8" x="0" y="0" patternUnits="userSpaceOnUse"><path id="path4690" stroke="#000" stroke-width=".25" d="M8 4 l-4,4" linecap="square"/><path id="path4692" stroke="#000" stroke-width=".25" d="M6 2 l-4,4" linecap="square"/><path id="path4694" stroke="#000" stroke-width=".25" d="M4 0 l-4,4" linecap="square"/></pattern><marker style="overflow:visible" id="DistanceX-3" orient="auto" refX="0" refY="0"><path id="path4756" style="stroke:#000;stroke-width:.5" d="M 3,-3 L -3,3 M 0,-5 L 0,5"/></marker><pattern id="Hatch-6" width="8" height="8" x="0" y="0" patternUnits="userSpaceOnUse"><path id="path4759" stroke="#000" stroke-width=".25" d="M8 4 l-4,4" linecap="square"/><path id="path4761" stroke="#000" stroke-width=".25" d="M6 2 l-4,4" linecap="square"/><path id="path4763" stroke="#000" stroke-width=".25" d="M4 0 l-4,4" linecap="square"/></pattern><marker style="overflow:visible" id="DistanceX-7" orient="auto" refX="0" refY="0"><path id="path4920" style="stroke:#000;stroke-width:.5" d="M 3,-3 L -3,3 M 0,-5 L 0,5"/></marker><pattern id="Hatch-5" width="8" height="8" x="0" y="0" patternUnits="userSpaceOnUse"><path id="path4923" stroke="#000" stroke-width=".25" d="M8 4 l-4,4" linecap="square"/><path id="path4925" stroke="#000" stroke-width=".25" d="M6 2 l-4,4" linecap="square"/><path id="path4927" stroke="#000" stroke-width=".25" d="M4 0 l-4,4" linecap="square"/></pattern><marker style="overflow:visible" id="DistanceX-35" orient="auto" refX="0" refY="0"><path id="path4984" style="stroke:#000;stroke-width:.5" d="M 3,-3 L -3,3 M 0,-5 L 0,5"/></marker><pattern id="Hatch-62" width="8" height="8" x="0" y="0" patternUnits="userSpaceOnUse"><path id="path4987" stroke="#000" stroke-width=".25" d="M8 4 l-4,4" linecap="square"/><path id="path4989" stroke="#000" stroke-width=".25" d="M6 2 l-4,4" linecap="square"/><path id="path4991" stroke="#000" stroke-width=".25" d="M4 0 l-4,4" linecap="square"/></pattern><marker style="overflow:visible" id="DistanceX-9" orient="auto" refX="0" refY="0"><path id="path5044" style="stroke:#000;stroke-width:.5" d="M 3,-3 L -3,3 M 0,-5 L 0,5"/></marker><pattern id="Hatch-1" width="8" height="8" x="0" y="0" patternUnits="userSpaceOnUse"><path id="path5047" stroke="#000" stroke-width=".25" d="M8 4 l-4,4" linecap="square"/><path id="path5049" stroke="#000" stroke-width=".25" d="M6 2 l-4,4" linecap="square"/><path id="path5051" stroke="#000" stroke-width=".25" d="M4 0 l-4,4" linecap="square"/></pattern></defs><metadata id="metadata5"/><g id="layer1" transform="translate(0,-161.53332)"><g id="g4960" transform="matrix(0.356623,0,0,0.356623,38.15173,-196.45162)" style="stroke:#fff;stroke-width:1.40204081;stroke-miterlimit:4;stroke-dasharray:none;stroke-opacity:1"><g id="g4940" style="stroke:#fff;stroke-width:1.40204081;stroke-miterlimit:4;stroke-dasharray:none;stroke-opacity:1"><path style="fill:#fff;fill-opacity:1;stroke:#fff;stroke-width:1.40204081;stroke-miterlimit:4;stroke-dasharray:none;stroke-opacity:1" id="path4936" d="m 39.984833,1063.9015 -3.428448,0.3376 -1.443251,2.4866 -1.853336,4.4442 -0.931739,3.4444 -0.307197,2.2939 -0.003,1.0665 0.191273,1.4737 -0.201415,2.8328 -0.908554,1.5085 -8.44071,1.6795 -1.41862,-1.0448 -1.269369,-2.5402 -0.388347,-1.436 -0.410078,-0.9825 -1.16214,-2.004 -2.177924,-2.8242 -3.413958,-3.398 -2.283698,-1.7447 -3.2980381,0.9999 -3.0372074,1.6258 -0.3825491,2.8474 -0.013043,4.8166 0.4593482,3.5372 0.5941108,2.2373 0.4057338,0.9868 0.7404643,1.2882 0.8984102,2.6938 -0.2637272,1.7417 -7.1554054,4.7819 -1.7098778,-0.4231 -2.146042,-1.862 -0.9056565,-1.1752 -0.7564036,-0.7521 -1.8417418,-1.407 -3.0922714,-1.7751 -4.452928,-1.8345 -2.779276,-0.7361 -2.663353,2.1852 -2.186616,2.6648 0.739015,2.7778 1.831599,4.4529 1.777983,3.0937 1.404129,1.8389 0.752056,0.7564 1.176629,0.9085 1.862028,2.1446 0.423122,1.7114 -4.780413,7.1554 -1.741758,0.2622 -2.693782,-0.8984 -1.289654,-0.7404 -0.985354,-0.4058 -2.238781,-0.5941 -3.53713,-0.4579 -4.816639,0.01 -2.848832,0.3825 -1.622935,3.0401 -1.002742,3.2966 1.746104,2.2852 3.396572,3.4125 2.824197,2.1779 2.004036,1.1636 0.983904,0.4101 1.434559,0.3869 2.540184,1.2693 1.047662,1.4172 -1.680897,8.4422 -1.50846,0.91 -2.832891,0.1999 -1.475133,-0.1898 h -1.063603 l -2.296743,0.3058 -3.441491,0.9317 -4.447133,1.8533 -2.485119,1.4447 -0.337629,3.427 0.337629,3.43 2.485119,1.4432 4.447133,1.8533 3.441491,0.9318 2.296743,0.3072 h 1.063603 l 1.475133,-0.1913 2.832891,0.2 1.50846,0.91 1.680897,8.4421 -1.047662,1.4187 -2.540184,1.2693 -1.434559,0.3869 -0.983904,0.4101 -2.004036,1.1636 -2.824197,2.175 -3.396572,3.414 -1.746104,2.2851 1.002742,3.2981 1.622935,3.0386 2.848832,0.3811 4.816639,0.012 3.53713,-0.4579 2.238781,-0.5927 0.985354,-0.4072 1.289654,-0.739 2.693782,-0.8984 1.741758,0.2608 4.780413,7.1569 -0.423122,1.7099 -1.862028,2.1446 -1.176629,0.9085 -0.752056,0.7564 -1.404129,1.8389 -1.777983,3.0922 -1.831599,4.4559 -0.739015,2.7763 2.186616,2.6648 2.663353,2.1852 2.779276,-0.7361 4.452928,-1.8345 3.0922714,-1.7751 1.8417418,-1.4056 0.7564036,-0.752 0.9056565,-1.1781 2.146042,-1.862 1.7098778,-0.4231 7.1554054,4.7833 0.2637272,1.7417 -0.8984102,2.6938 -0.7404643,1.2882 -0.4057338,0.9854 -0.5941108,2.2402 -0.4593482,3.5371 0.013043,4.8167 0.3825491,2.8473 3.0372074,1.6244 3.2980381,0.9999 2.283698,-1.7432 3.413958,-3.3995 2.177924,-2.8242 1.16214,-2.004 0.410078,-0.9839 0.388347,-1.4332 1.269369,-2.5416 1.41862,-1.0447 8.44071,1.678 0.908554,1.5099 0.201415,2.8314 -0.191273,1.4751 0.003,1.0665 0.307197,2.2953 0.931739,3.443 1.853336,4.4456 1.443251,2.4852 3.428448,0.339 3.429902,-0.339 1.443252,-2.4852 1.853336,-4.4456 0.928839,-3.443 0.30865,-2.2953 0.003,-1.0665 -0.189826,-1.4751 0.198521,-2.8314 0.911455,-1.5099 8.44071,-1.678 1.41862,1.0447 1.269369,2.5416 0.386893,1.4332 0.410085,0.9839 1.163587,2.004 2.177917,2.8242 3.412511,3.3995 2.285152,1.7432 3.296588,-0.9999 3.038654,-1.6244 0.382553,-2.8473 0.01016,-4.8167 -0.456447,-3.5371 -0.594117,-2.2402 -0.40573,-0.9854 -0.740467,-1.2882 -0.898412,-2.6938 0.263728,-1.7417 7.153958,-4.7833 1.711327,0.4231 2.144596,1.862 0.907101,1.1781 0.756403,0.752 1.840293,1.4056 3.093726,1.7751 4.452927,1.8345 2.77638,0.7361 2.664803,-2.1852 2.18517,-2.6648 -0.73612,-2.7763 -1.8345,-4.4559 -1.775089,-3.0922 -1.405577,-1.8389 -0.752055,-0.7564 -1.17663,-0.9085 -1.860578,-2.1446 -0.424575,-1.7099 4.781869,-7.1569 1.741753,-0.2608 2.693782,0.8984 1.28966,0.739 0.98535,0.4072 2.23879,0.5927 3.53713,0.4579 4.81663,-0.012 2.84738,-0.3811 v 0.01 l 1.62439,-3.0386 0.99984,-3.2995 -1.74321,-2.2822 -3.39801,-3.414 -2.8242,-2.1779 -2.00404,-1.1622 -0.98245,-0.41 -1.43601,-0.3898 -2.54163,-1.2694 -1.04477,-1.4172 1.67945,-8.4421 1.50846,-0.9071 2.83434,-0.2015 1.47224,0.1913 h 1.0665 l 2.29529,-0.3086 3.44294,-0.9303 4.44569,-1.8534 2.48656,-1.4432 0.33763,-3.4299 -0.33763,-3.4299 -2.48656,-1.4404 -4.44569,-1.8548 -3.44294,-0.9302 -2.29529,-0.3087 h -1.0665 l -1.47224,0.1913 -2.83434,-0.2014 -1.50846,-0.9086 -1.67945,-8.4407 1.04477,-1.4186 2.54163,-1.2694 1.43601,-0.3883 0.98245,-0.4101 2.00404,-1.1621 2.8242,-2.178 3.39801,-3.4139 1.74321,-2.2837 -0.99984,-3.2981 -1.62439,-3.0401 -2.84738,-0.3811 -4.81663,-0.012 -3.53713,0.4594 -2.23879,0.5941 -0.98535,0.4057 -1.28966,0.7405 -2.693782,0.8984 -1.741753,-0.2637 -4.781869,-7.1554 0.424575,-1.7099 1.860578,-2.146 1.17663,-0.9071 0.752055,-0.755 1.405577,-1.8417 1.775089,-3.0923 1.8345,-4.4529 0.73612,-2.7793 -2.18517,-2.6648 -2.664803,-2.1852 -2.77638,0.739 -4.452927,1.8316 -3.093726,1.778 -1.840293,1.4041 -0.756403,0.7521 -0.907101,1.1766 -2.144596,1.8621 -1.711327,0.4231 -7.153958,-4.7804 -0.263728,-1.7432 0.898412,-2.6924 0.740467,-1.2896 0.40573,-0.9854 0.594117,-2.2388 0.456447,-3.5371 -0.01016,-4.8166 -0.382553,-2.8503 -3.038654,-1.6229 -3.296588,-1.0013 -2.285152,1.7461 -3.412511,3.3965 -2.177917,2.8242 -1.163587,2.0041 -0.410085,0.9839 -0.386893,1.4331 -1.269369,2.5416 -1.41862,1.0477 -8.442156,-1.6809 -0.910009,-1.5099 -0.198521,-2.8315 0.189826,-1.4751 -0.003,-1.0636 -0.30865,-2.2982 -0.928839,-3.44 -1.853336,-4.4486 -1.443252,-2.4837 z m -0.240543,40.0198 c 25.773221,-10e-5 46.666641,20.855 46.666634,46.5812 0,25.7262 -20.89342,46.5813 -46.666634,46.5811 -25.773213,2e-4 -46.6666339,-20.8549 -46.6666309,-46.5811 -6.7e-6,-25.7262 20.8934179,-46.5813 46.6666309,-46.5812 z"/></g></g><g id="g5020" transform="matrix(0.35552611,-0.02794902,0.02794902,0.35552611,64.796165,-192.13622)" style="stroke:#fff;stroke-width:1.40204084;stroke-miterlimit:4;stroke-dasharray:none;stroke-opacity:1"><g id="g5000" style="stroke:#fff;stroke-width:1.40204084;stroke-miterlimit:4;stroke-dasharray:none;stroke-opacity:1" transform="rotate(-7.20199,-42.477168,1116.3894)"><path style="fill:#fff;fill-opacity:1;stroke:#fff;stroke-width:1.40204084;stroke-miterlimit:4;stroke-dasharray:none;stroke-opacity:1" id="path4996" d="m 333.99609,122.4375 -2.92968,0.28906 -1.03125,1.17188 -2.8418,5.72656 -0.76563,3.80664 0.0859,1.37109 1.43164,4.2461 -0.94922,3.36328 -7.95117,3.29492 -3.05078,-1.70898 -1.99219,-4.01367 -0.90625,-1.0293 -3.23437,-2.15039 -6.0586,-2.04102 -1.55664,-0.0996 -2.27734,1.86914 -1.86719,2.27539 0.0977,1.55664 2.04297,6.06055 2.14843,3.23242 1.0293,0.90821 4.01563,1.99023 1.70703,3.05078 -3.29297,7.95117 -3.36523,0.94922 -4.2461,-1.42969 -1.36914,-0.0879 -3.80664,0.76563 -5.72852,2.8418 -1.16992,1.03125 -0.28906,2.93164 0.28906,2.92968 1.16992,1.03125 5.72852,2.8418 3.80664,0.76563 1.36914,-0.0859 4.2461,-1.43164 3.36523,0.94922 3.29297,7.95117 -1.70703,3.05078 -4.01563,1.99023 -1.0293,0.90821 -2.14843,3.23242 -2.04297,6.06055 -0.0977,1.55664 1.86719,2.27734 2.27734,1.86719 1.55664,-0.0977 6.0586,-2.04101 3.23437,-2.15039 0.90625,-1.0293 1.99219,-4.01563 3.05078,-1.70703 7.95117,3.29297 0.94922,3.36524 -1.43164,4.24609 -0.0859,1.36914 0.76563,3.80664 2.8418,5.72852 1.03125,1.17187 2.92968,0.28711 2.93164,-0.28711 1.03125,-1.17187 2.8418,-5.72852 0.76563,-3.80664 -0.0859,-1.36914 -1.43164,-4.24609 0.94922,-3.36524 7.95117,-3.29297 3.05078,1.70703 1.99219,4.01563 0.90625,1.0293 3.23437,2.15039 6.0586,2.04101 1.55664,0.0977 v 0.002 l 2.27734,-1.86914 1.86719,-2.27539 -0.0977,-1.55664 -2.04297,-6.06055 -2.14843,-3.23437 -1.0293,-0.90625 -4.01563,-1.99024 -1.70703,-3.05078 3.29297,-7.95117 3.36524,-0.94922 4.24609,1.42969 1.36914,0.0879 3.80664,-0.76758 5.72852,-2.83984 1.16992,-1.03321 0.28906,-2.92968 -0.28906,-2.92969 -1.16992,-1.03125 -5.72852,-2.8418 -3.80664,-0.76562 -1.36914,0.0859 -4.24609,1.43165 -3.36524,-0.94922 -3.29297,-7.95117 1.70703,-3.05079 4.01563,-1.99218 1.0293,-0.90625 2.14843,-3.23438 2.04297,-6.05859 0.0977,-1.55664 -1.86719,-2.27735 -2.27734,-1.86718 -1.55664,0.0996 -6.0586,2.04102 -3.23437,2.14844 -0.90625,1.03125 L 352,144 l -3.05078,1.70703 -7.95117,-3.29297 -0.94922,-3.36523 1.43164,-4.2461 0.0859,-1.36914 -0.76563,-3.80664 -2.8418,-5.72851 -1.03125,-1.17188 z m 0,36.78516 2.35743,0.24804 2.25586,0.73242 2.05273,1.1836 1.76172,1.58594 1.39258,1.91796 0.96484,2.16602 0.49219,2.31836 v 2.37109 l -0.49219,2.31836 -0.96484,2.16602 -1.39258,1.91797 -1.76172,1.58594 -2.05273,1.18359 -2.25586,0.73437 -2.35743,0.2461 -2.35742,-0.2461 -2.2539,-0.73437 -2.05274,-1.18359 -1.76172,-1.58594 -1.39258,-1.91797 -0.96484,-2.16602 -0.49219,-2.31836 V 169.375 l 0.49219,-2.31836 0.96484,-2.16602 1.39258,-1.91796 1.76172,-1.58594 2.05274,-1.1836 2.2539,-0.73242 z" transform="translate(-333.99702,951.95909)"/></g></g><g id="g5080" transform="matrix(0.34754475,0.07995379,-0.07995379,0.34754475,170.06814,-138.86251)" style="stroke:#fff;stroke-width:1.40204084;stroke-miterlimit:4;stroke-dasharray:none;stroke-opacity:1"><g id="g5060" style="stroke:#fff;stroke-width:1.40204084;stroke-miterlimit:4;stroke-dasharray:none;stroke-opacity:1" transform="rotate(7.7315343,-53.927495,1106.153)"><path style="fill:#fff;fill-opacity:1;stroke:#fff;stroke-width:1.40204084;stroke-miterlimit:4;stroke-dasharray:none;stroke-opacity:1" id="path5056" d="m 286.00195,248.30078 -2.95117,0.70899 -2.80469,1.16211 -0.71093,2.08007 -0.68946,5.7168 0.33399,3.74023 0.47851,1.54883 0.29102,0.33399 2.10156,4.01758 -0.1914,2.79882 -6.9629,5.0586 -2.7207,-0.6836 -3.17187,-3.23828 -0.22657,-0.38086 -1.32617,-0.93359 -3.45312,-1.47266 -5.65039,-1.11133 -2.19922,0.0332 -1.97071,2.30859 -1.58593,2.58789 0.64648,2.10156 2.80274,5.03125 2.46875,2.82813 1.29687,0.97266 0.43359,0.0996 4.06055,2.01367 1.49024,2.37695 -2.65821,8.18555 -2.60547,1.04492 -4.46875,-0.75586 -0.4082,-0.17383 -1.61914,0.0254 -3.66016,0.83594 -5.22461,2.42383 -1.75976,1.31836 -0.23828,3.02734 0.23828,3.02539 1.75976,1.31836 5.22461,2.42383 3.66016,0.83789 1.61914,0.0234 0.4082,-0.17383 4.46875,-0.75586 2.60547,1.04492 2.65821,8.18555 -1.49024,2.37695 -4.06055,2.01563 -0.43359,0.0976 -1.29687,0.97266 -2.46875,2.82812 -2.80274,5.03321 -0.64648,2.09961 1.58593,2.58789 1.97071,2.30859 2.19922,0.0332 5.65039,-1.10937 3.45312,-1.47461 1.32617,-0.93164 0.22657,-0.38281 3.17187,-3.23829 2.7207,-0.68359 6.9629,5.05859 0.1914,2.79883 -2.10156,4.01758 -0.29102,0.33399 -0.47851,1.54882 -0.33399,3.74024 0.68946,5.7168 0.71093,2.08007 2.80469,1.16211 2.95117,0.70899 1.79883,-1.26563 3.91797,-4.2207 1.92773,-3.22266 0.5254,-1.53125 -0.041,-0.44336 0.66211,-4.48437 1.79883,-2.15235 h 8.60742 l 1.79883,2.15235 0.66211,4.48437 -0.0391,0.44336 0.52344,1.53125 1.92774,3.22266 3.91796,4.2207 1.79883,1.26563 2.95117,-0.70899 2.80469,-1.16211 0.71094,-2.08007 0.68945,-5.7168 -0.33398,-3.74024 -0.47656,-1.54882 -0.29297,-0.33399 -2.09961,-4.01758 0.18945,-2.79883 6.96289,-5.05859 2.7207,0.68359 3.17188,3.23829 0.22851,0.38281 1.32422,0.93164 3.45313,1.47461 5.65234,1.10937 2.19727,-0.0332 1.9707,-2.30859 1.58594,-2.58789 -0.64649,-2.09961 -2.80273,-5.03321 -2.46875,-2.82812 -1.29687,-0.97266 -0.4336,-0.0976 -4.05859,-2.01563 -1.49219,-2.37695 2.66016,-8.18555 2.60351,-1.04492 4.46875,0.75586 0.4082,0.17383 1.6211,-0.0234 3.66016,-0.83789 5.2246,-2.42383 1.75782,-1.31836 0.23828,-3.02539 -0.23828,-3.02734 -1.75782,-1.31836 -5.2246,-2.42383 -3.66016,-0.83594 -1.6211,-0.0254 -0.4082,0.17383 -4.46875,0.75586 -2.60351,-1.04492 L 336,288 l 1.49219,-2.37695 4.05859,-2.01367 0.4336,-0.0996 1.29687,-0.97266 2.46875,-2.82813 2.80273,-5.03125 0.64649,-2.10156 -1.58594,-2.58789 -1.9707,-2.30859 -2.19727,-0.0332 -5.65234,1.11133 -3.45313,1.47266 -1.32422,0.93359 -0.22851,0.38086 -3.17188,3.23828 -2.7207,0.6836 -6.96289,-5.0586 -0.18945,-2.79882 2.09961,-4.01758 0.29297,-0.33399 0.47656,-1.54883 0.33398,-3.74023 -0.68945,-5.7168 -0.71094,-2.08007 -2.80469,-1.16211 -2.95117,-0.70899 -1.79883,1.26563 -3.91796,4.2207 -1.92774,3.22266 -0.52344,1.53125 0.0391,0.44336 -0.66211,4.48437 -1.79883,2.15234 h -8.60742 l -1.79883,-2.15234 -0.66211,-4.48437 0.041,-0.44336 -0.5254,-1.53125 -1.92773,-3.22266 -3.91797,-4.2207 z m 14.89453,44.29102 2.35743,0.24804 2.2539,0.73243 2.05274,1.18554 1.76172,1.58594 1.39257,1.91797 0.96485,2.16601 0.49219,2.31836 v 2.36914 l -0.49219,2.31836 -0.96485,2.16602 -1.39257,1.91797 -1.76172,1.58594 -2.05274,1.18554 -2.2539,0.73242 -2.35743,0.24805 -2.35742,-0.24805 -2.25586,-0.73242 -2.05273,-1.18554 -1.76172,-1.58594 -1.39258,-1.91797 -0.96484,-2.16602 -0.49219,-2.31836 v -2.36914 l 0.49219,-2.31836 0.96484,-2.16601 1.39258,-1.91797 1.76172,-1.58594 2.05273,-1.18554 2.25586,-0.73243 z" transform="translate(-300.89576,818.58899)"/></g></g></g></svg>