<svg xmlns="http://www.w3.org/2000/svg" xmlns:svg="http://www.w3.org/2000/svg" id="svg8" width="512" height="512" version="1.1" viewBox="0 0 135.467 135.467"><defs id="defs2"><filter style="color-interpolation-filters:sRGB" id="filter4628"><feComposite id="feComposite4614" in2="SourceGraphic" k1="0" k2="1" operator="arithmetic" result="composite1"/><feColorMatrix id="feColorMatrix4616" in="composite1" result="colormatrix1" type="saturate" values="1"/><feFlood id="feFlood4618" flood-color="#9E0000" flood-opacity="1" result="flood1"/><feBlend id="feBlend4620" in="flood1" in2="colormatrix1" mode="multiply" result="blend1"/><feBlend id="feBlend4622" in2="blend1" mode="screen" result="blend2"/><feColorMatrix id="feColorMatrix4624" in="blend2" result="colormatrix2" type="saturate" values="1"/><feComposite id="feComposite4626" in="colormatrix2" in2="SourceGraphic" k2="1" operator="in" result="composite2"/></filter><filter style="color-interpolation-filters:sRGB" id="filter5109"><feComposite id="feComposite5095" in2="SourceGraphic" k1="0" k2="1" operator="arithmetic" result="composite1"/><feColorMatrix id="feColorMatrix5097" in="composite1" result="colormatrix1" type="saturate" values="1"/><feFlood id="feFlood5099" flood-color="#9E4300" flood-opacity="1" result="flood1"/><feBlend id="feBlend5101" in="flood1" in2="colormatrix1" mode="multiply" result="blend1"/><feBlend id="feBlend5103" in2="blend1" mode="screen" result="blend2"/><feColorMatrix id="feColorMatrix5105" in="blend2" result="colormatrix2" type="saturate" values="1"/><feComposite id="feComposite5107" in="colormatrix2" in2="SourceGraphic" k2="1" operator="in" result="fbSourceGraphic"/><feColorMatrix id="feColorMatrix5111" in="fbSourceGraphic" result="fbSourceGraphicAlpha" values="0 0 0 -1 0 0 0 0 -1 0 0 0 0 -1 0 0 0 0 1 0"/><feComposite id="feComposite5113" in="fbSourceGraphic" in2="fbSourceGraphic" k1="0" k2="1" operator="arithmetic" result="composite1"/><feColorMatrix id="feColorMatrix5115" in="composite1" result="colormatrix1" type="saturate" values="1"/><feFlood id="feFlood5117" flood-color="#9E0000" flood-opacity="1" result="flood1"/><feBlend id="feBlend5119" in="flood1" in2="colormatrix1" mode="multiply" result="blend1"/><feBlend id="feBlend5121" in2="blend1" mode="screen" result="blend2"/><feColorMatrix id="feColorMatrix5123" in="blend2" result="colormatrix2" type="saturate" values="1"/><feComposite id="feComposite5125" in="colormatrix2" in2="fbSourceGraphic" k2="1" operator="in" result="fbSourceGraphic"/><feColorMatrix id="feColorMatrix7007" in="fbSourceGraphic" result="fbSourceGraphicAlpha" values="0 0 0 -1 0 0 0 0 -1 0 0 0 0 -1 0 0 0 0 1 0"/><feConvolveMatrix id="feConvolveMatrix7009" divisor="1" in="fbSourceGraphic" kernelMatrix="0 -0.15 0 -0.15 1.6 -0.15 0 -0.15 0" order="3 3" result="fbSourceGraphic" targetX="1" targetY="1"/><feColorMatrix id="feColorMatrix7011" in="fbSourceGraphic" result="fbSourceGraphicAlpha" values="0 0 0 -1 0 0 0 0 -1 0 0 0 0 -1 0 0 0 0 1 0"/><feConvolveMatrix id="feConvolveMatrix7013" divisor="1" in="fbSourceGraphic" kernelMatrix="0 -0.3 0 -0.3 2.2 -0.3 0 -0.3 0" order="3 3" result="result1" targetX="1" targetY="1"/><feBlend id="feBlend7015" in2="fbSourceGraphic" mode="normal" result="result2"/></filter><marker style="overflow:visible" id="DistanceX" orient="auto" refX="0" refY="0"><path id="path7410" style="stroke:#000;stroke-width:.5" d="M 3,-3 L -3,3 M 0,-5 L 0,5"/></marker><pattern id="Hatch" width="8" height="8" x="0" y="0" patternUnits="userSpaceOnUse"><path id="path7413" stroke="#000" stroke-width=".25" d="M8 4 l-4,4" linecap="square"/><path id="path7415" stroke="#000" stroke-width=".25" d="M6 2 l-4,4" linecap="square"/><path id="path7417" stroke="#000" stroke-width=".25" d="M4 0 l-4,4" linecap="square"/></pattern></defs><metadata id="metadata5"/><g id="layer2" style="display:inline"><path style="fill:#fff;stroke-width:1;stroke:#fff;stroke-opacity:1;fill-opacity:1;stroke-miterlimit:4;stroke-dasharray:none" id="path7055"/><path style="fill:#fff;stroke-width:1;stroke:#fff;stroke-opacity:1;fill-opacity:1;stroke-miterlimit:4;stroke-dasharray:none" id="path7035"/><path style="fill:#fff;stroke-width:1;stroke:#fff;stroke-opacity:1;fill-opacity:1;stroke-miterlimit:4;stroke-dasharray:none" id="path7005"/><path style="fill:#fff;stroke-width:1;stroke:#fff;stroke-opacity:1;fill-opacity:1;stroke-miterlimit:4;stroke-dasharray:none" id="path5127"/><path style="fill:#fff;fill-opacity:1;stroke:#fff;stroke-width:3.77952761;stroke-linecap:round;stroke-linejoin:round;stroke-miterlimit:4;stroke-dasharray:none;stroke-opacity:1" id="path7617" d="M 150.08631,391.94585 C 127.2399,389.49917 105.94293,375.91818 94.0332,356.20102 86.417382,343.59265 83.080086,330.51463 83.588961,315.27269 c 0.288383,-8.63772 1.22906,-14.19631 3.585813,-21.18907 0.744516,-2.20907 10.578738,-22.66466 21.853826,-45.45687 11.27509,-22.79221 22.70752,-45.91291 25.4054,-51.37934 5.65921,-11.46666 7.92364,-14.85355 13.47663,-20.15687 9.3888,-8.96668 21.0224,-13.60185 34.10046,-13.58663 15.57027,0.0181 29.17184,6.54335 38.91458,18.66892 4.42466,5.50682 7.71172,12.24131 9.40778,19.27457 l 1.32267,5.48487 1.89404,7.6e-4 c 1.80502,7.5e-4 1.89404,-0.0773 1.89404,-1.66087 0,-2.38449 1.37433,-7.32366 2.62141,-9.42102 4.34092,-7.30059 13.17739,-11.60831 20.98951,-10.23223 8.90426,1.56845 16.14022,8.89813 17.09233,17.31369 l 0.3384,2.99108 h 1.90437 1.90437 l 0.82037,-3.6618 c 1.97195,-8.80199 6.717,-17.42698 13.15423,-23.91027 6.44087,-6.48695 14.23724,-11.09036 22.74482,-13.4298 3.44476,-0.94724 5.34406,-1.11181 12.87945,-1.11592 8.2237,-0.004 9.15393,0.0921 13.36642,1.38764 11.19974,3.4445 21.27498,10.65667 27.47414,19.66684 2.43995,3.54634 51.82554,103.72263 53.56888,108.66187 4.86293,13.77773 5.3328,30.48234 1.25486,44.6126 -7.75149,26.85937 -29.41571,46.87461 -57.03616,52.69485 -7.41065,1.56158 -20.20927,1.68497 -27.769,0.2677 -10.44443,-1.95808 -21.29618,-6.51537 -29.79851,-12.51414 -5.61285,-3.96011 -13.68691,-11.97138 -17.55818,-17.42164 -5.93008,-8.3488 -10.31705,-18.5166 -12.57558,-29.14677 -0.9513,-4.47749 -1.12676,-7.36003 -1.388,-22.80306 l -0.29904,-17.67767 -1.72317,-3.17794 c -1.98763,-3.66567 -6.54416,-8.1288 -10.17974,-9.97108 -3.00155,-1.521 -7.96438,-2.74331 -11.17947,-2.75342 -9.0329,-0.0284 -18.18038,5.63658 -22.00735,13.62902 l -1.57171,3.28243 -0.0408,14.1427 c -0.0539,18.69996 -0.78106,24.89804 -4.07384,34.72632 -2.2638,6.75698 -4.66197,11.60267 -8.86796,17.91843 -11.87929,17.83801 -31.39221,29.77252 -52.98796,32.40855 -4.28534,0.52308 -12.49549,0.62647 -16.41498,0.20673 z m 17.51181,-12.02116 c 24.5782,-3.98628 44.48858,-21.86418 50.90845,-45.71164 7.03076,-26.11666 -3.52165,-54.08171 -26.00322,-68.91142 -18.6353,-12.29256 -42.96948,-13.7508 -62.79635,-3.7631 -6.56442,3.3068 -10.82228,6.4025 -16.2475,11.81283 -12.18826,12.1548 -18.426507,27.20212 -18.426507,44.44671 0,16.25308 5.718027,30.90801 16.717117,42.84489 8.79197,9.54157 22.47266,17.01469 34.80066,19.00997 2.08344,0.33719 4.129,0.67988 4.54569,0.76152 2.33806,0.45809 12.52096,0.15587 16.50166,-0.48976 z m 199.67098,-0.46635 c 21.74737,-4.70543 39.22231,-19.90775 46.64822,-40.58158 4.67986,-13.02877 4.67986,-29.12861 0,-42.15737 -9.00601,-25.07287 -32.72555,-41.79925 -59.27512,-41.79925 -29.97234,0 -55.28352,20.70748 -61.73156,50.50356 -0.78837,3.64299 -1.03837,6.62229 -1.03837,12.37437 0,8.49596 0.94045,14.06163 3.61188,21.37559 7.82601,21.42637 26.67144,37.08767 49.05652,40.76791 5.46425,0.89835 17.52859,0.64186 22.72843,-0.48323 z M 237.11052,255.93654 c 2.061,-5.80288 9.76676,-11.6013 16.44795,-12.37673 8.46341,-0.98229 17.00015,3.70335 20.60499,11.30963 1.35941,2.86835 1.5302,3.0277 3.27087,3.05174 l 1.83657,0.0254 0.37277,-13.91749 c 0.20502,-7.65462 0.25259,-14.81346 0.10571,-15.90854 -0.81263,-6.05855 -6.90622,-13.74979 -13.24302,-16.71514 -12.19154,-5.70511 -26.74913,-0.60024 -32.61887,11.43837 -1.71657,3.52062 -1.72459,3.57069 -1.90176,11.8693 -0.0979,4.58356 -0.0177,11.79984 0.17822,16.03617 l 0.35614,7.70241 h 1.84858 c 1.76097,0 1.89091,-0.11919 2.74185,-2.51507 z" transform="scale(0.26458333)"/><path style="fill:#fff;fill-opacity:1;stroke:#fff;stroke-width:3.77952761;stroke-linecap:round;stroke-linejoin:round;stroke-miterlimit:4;stroke-dasharray:none;stroke-opacity:1" id="path7619" d="m 226.35138,166.86581 c -8.68374,-8.45091 -19.24579,-14.06812 -31.56582,-16.78764 -1.94455,-0.42924 -6.62953,-0.91183 -10.41107,-1.07243 l -6.87554,-0.29199 3.79476,-8.23483 c 4.15041,-9.00661 6.33398,-12.02822 10.83115,-14.98806 5.73143,-3.77218 12.11755,-5.07486 18.37716,-3.74869 6.79635,1.43989 12.12205,4.97666 15.80992,10.49928 3.65897,5.47936 4.06888,7.72634 4.43093,24.289 0.17485,7.99863 0.22458,14.53663 0.11051,14.52888 -0.11408,-0.008 -2.13997,-1.89483 -4.502,-4.19352 z" transform="scale(0.26458333)"/><path style="fill:#fff;fill-opacity:1;stroke:#fff;stroke-width:3.77952761;stroke-linecap:round;stroke-linejoin:round;stroke-miterlimit:4;stroke-dasharray:none;stroke-opacity:1" id="path7621" d="m 281.04946,156.67874 c 0.29695,-15.67547 0.53041,-17.35662 3.11733,-22.44879 1.64145,-3.23106 6.08971,-7.81924 9.49653,-9.79523 1.32451,-0.76823 4.2792,-1.87338 6.56599,-2.45589 3.62852,-0.92429 4.68255,-0.99503 8.28005,-0.55573 6.90922,0.84371 13.7575,4.77525 17.28082,9.92078 1.38217,2.01854 8.14389,16.19869 8.14389,17.07872 0,0.2351 -2.10238,0.42837 -4.67196,0.42949 -8.99282,0.004 -18.25222,2.12274 -26.55807,6.0773 -7.17709,3.41713 -11.63607,6.48677 -17.19557,11.83773 l -4.73649,4.55883 z" transform="scale(0.26458333)"/></g><g id="g7475" transform="matrix(0.14221997,0,0,0.14221997,-31.981034,55.479631)" style="stroke:#fff;stroke-width:7.03136135;stroke-miterlimit:4;stroke-dasharray:none;stroke-opacity:1;stroke-linejoin:round"><path id="path7425" style="fill:none;stroke:#fff;stroke-width:7.03136135;stroke-miterlimit:4;stroke-dasharray:none;stroke-opacity:1;stroke-linejoin:round" d="m 394.42769,131.14785 a 142.37722,142.37722 0 1 0 266.38087,69.95976"/><path id="path7433" style="fill:none;stroke:#fff;stroke-width:0;stroke-miterlimit:4;stroke-dasharray:none;stroke-opacity:1;stroke-linejoin:round;stroke-linecap:round" d="M 658.56907,-59.664378 A 115.98533,115.98533 0 0 0 548.79351,-108.70519 m 108.73351,-11.03878 1.04205,60.079592 m -1.04205,-60.079592 a 49.685709,49.685709 0 0 0 -92.6985,-23.81259 m 0,0 -16.03501,34.85137"/><path id="path7435" style="fill:none;stroke:#fff;stroke-width:7.03136135;stroke-miterlimit:4;stroke-dasharray:none;stroke-opacity:1;stroke-linejoin:round" d="m 660.1707,35.074784 0.45347,54.803856"/><path id="path7437" style="fill:none;stroke:#fff;stroke-width:7.03136135;stroke-miterlimit:4;stroke-dasharray:none;stroke-opacity:1;stroke-linejoin:round" d="M 474.48909,-30.517229 387.62757,144.87909"/><path id="path7439" style="fill:none;stroke:#fff;stroke-width:7.03136135;stroke-miterlimit:4;stroke-dasharray:none;stroke-opacity:1;stroke-linejoin:round" d="M 659.19164,-5.530313 A 96.39108,96.39108 0 0 0 474.48909,-30.517229"/><path id="path7441" style="fill:none;stroke:#fff;stroke-width:7.03136135;stroke-miterlimit:4;stroke-dasharray:none;stroke-opacity:1;stroke-linejoin:round" d="M 740.97478,202.17383 A 142.37722,142.37722 0 1 0 1007.3517,131.14785"/><path id="path7449" style="fill:none;stroke:#fff;stroke-width:0;stroke-miterlimit:4;stroke-dasharray:none;stroke-opacity:1;stroke-linejoin:round;stroke-linecap:round" d="m 852.98584,-108.70519 a 115.98533,115.98533 0 0 0 -109.77556,49.040812 m 1.04205,-60.079592 -1.04205,60.079592 m 93.74055,-83.892182 a 49.685709,49.685709 0 0 0 -92.6985,23.81259 m 92.6985,-23.81259 16.03501,34.85137"/><path id="path7451" style="fill:none;stroke:#fff;stroke-width:7.03136135;stroke-miterlimit:4;stroke-dasharray:none;stroke-opacity:1;stroke-linejoin:round" d="m 741.61776,33.973249 -0.4549,54.976979"/><path id="path7453" style="fill:none;stroke:#fff;stroke-width:7.03136135;stroke-miterlimit:4;stroke-dasharray:none;stroke-opacity:1;stroke-linejoin:round" d="M 927.29026,-30.517229 1014.1518,144.87909"/><path id="path7455" style="fill:none;stroke:#fff;stroke-width:7.03136135;stroke-miterlimit:4;stroke-dasharray:none;stroke-opacity:1;stroke-linejoin:round" d="M 927.29026,-30.517229 A 96.39108,96.39108 0 0 0 742.8897,-7.745832"/><path id="path7457" style="fill:none;stroke:#fff;stroke-width:7.03136135;stroke-miterlimit:4;stroke-dasharray:none;stroke-opacity:1;stroke-linejoin:round" d="M 741.16286,88.950228 A 41.867624,41.867624 0 0 0 660.62417,89.87864"/><path id="path7459" style="fill:none;stroke:#fff;stroke-width:7.03136135;stroke-miterlimit:4;stroke-dasharray:none;stroke-opacity:1;stroke-linejoin:round" d="m 740.61905,154.67245 a 41.867624,41.867624 0 0 0 -79.45215,0.79683"/><path id="path7461" style="fill:none;stroke:#fff;stroke-width:7.03136135;stroke-miterlimit:4;stroke-dasharray:none;stroke-opacity:1;stroke-linejoin:round" d="m 742.8897,-7.745832 a 41.867624,41.867624 0 1 0 -83.69806,2.215519"/><path id="path7463" style="fill:none;stroke:#fff;stroke-width:7.03136135;stroke-miterlimit:4;stroke-dasharray:none;stroke-opacity:1;stroke-linejoin:round" d="M 741.61776,33.973249 A 41.867624,41.867624 0 0 0 660.1707,35.074784"/><path id="path7465" style="fill:none;stroke:#fff;stroke-width:7.03136135;stroke-miterlimit:4;stroke-dasharray:none;stroke-opacity:1;stroke-linejoin:round" d="m 660.80856,201.10761 0.35834,-45.63833"/><path id="path7467" style="fill:none;stroke:#fff;stroke-width:7.03136135;stroke-miterlimit:4;stroke-dasharray:none;stroke-opacity:1;stroke-linejoin:round" d="m 740.97478,202.17383 -0.35573,-47.50138"/><path id="path7471" style="fill:none;stroke:#fff;stroke-width:7.03136135;stroke-miterlimit:4;stroke-dasharray:none;stroke-opacity:1;stroke-linejoin:round" d="m 631.81717,201.10761 a 113.38583,113.38583 0 1 0 -226.77166,0 113.38583,113.38583 0 1 0 226.77166,0 z"/><path id="path7473" style="fill:none;stroke:#fff;stroke-width:7.03136135;stroke-miterlimit:4;stroke-dasharray:none;stroke-opacity:1;stroke-linejoin:round" d="m 997.9874,201.10761 a 113.38583,113.38583 0 1 0 -226.77166,0 113.38583,113.38583 0 1 0 226.77166,0 z"/></g><path id="path7469" style="fill:#fff;stroke:#fff;stroke-width:.5;stroke-linejoin:round;stroke-miterlimit:4;stroke-dasharray:none;stroke-opacity:1;fill-opacity:1" d="m 70.34536,79.242709 a 2.6876219,2.6876219 0 1 0 -5.375243,0 2.6876219,2.6876219 0 1 0 5.375243,0 z"/></svg>